 http://leetleech.org/images/16418096040373828795.jpg

Screens:
 
http://leetleech.org/images/28994990512907273857.jpg 
http://leetleech.org/images/68514464483331968571.jpg 
http://leetleech.org/images/40490428010765565167.jpg 
http://leetleech.org/images/03133100567497766504.jpg

Alternative:
 
http://www.postimg.com/image/92000/1-91094.jpg 
http://www.postimg.com/image/92000/2-91095.jpg 
http://www.postimg.com/image/92000/3-91096.jpg 
http://www.postimg.com/image/92000/5-91097.jpg

ScreenCaps:
 
http://www.postimg.com/image/92000/screencaps-91099.jpg

The Dark Knight Rises (2012) DVDRip XviD-MAX
Format                                   : AVI
Format/Info                              : Audio Video Interleave
Format profile                           : OpenDML
File size                                : 2.05 GiB
Duration                                 : 2h 44mn
Overall bit rate                         : 1 784 Kbps
Writing application                      : VirtualDubMod 1.5.10.2 (build 2542/release)
Writing library                          : VirtualDubMod build 2542/release
Original source form                     : MAX TORRENTZ
Copyright                                : SIGISMUNT


Video
ID                                       : 0
Format                                   : MPEG-4 Visual
Format profile                           : Advanced Simple@L5
Format settings, BVOP                    : 2
Format settings, QPel                    : No
Format settings, GMC                     : No warppoints
Format settings, Matrix                  : Default (MPEG)
Codec ID                                 : XVID
Codec ID/Hint                            : XviD
Duration                                 : 2h 44mn
Bit rate                                 : 1 324 Kbps
Width                                    : 720 pixels
Height                                   : 400 pixels
Display aspect ratio                     : 16:9
Frame rate                               : 23.976 fps
Color space                              : YUV
Chroma subsampling                       : 4:2:0
Bit depth                                : 8 bits
Scan type                                : Progressive
Compression mode                         : Lossy
Bits/(Pixel*Frame)                       : 0.192
Stream size                              : 1.52 GiB (74%)
Writing library                          : XviD 1.2.1 (UTC 2008-12-04)

Audio
ID                                       : 1
Format                                   : AC-3
Format/Info                              : Audio Coding 3
Mode extension                           : CM (complete main)
Format settings, Endianness              : Big
Codec ID                                 : 2000
Duration                                 : 2h 44mn
Bit rate mode                            : Constant
Bit rate                                 : 448 Kbps
Channel(s)                               : 6 channels
Channel positions                        : Front: L C R, Side: L R, LFE
Sampling rate                            : 48.0 KHz
Bit depth                                : 16 bits
Compression mode                         : Lossy
Stream size                              : 527 MiB (25%)
Alignment                                : Split accross interleaves
Interleave, duration                     : 42 ms (1.00 video frame)
Interleave, preload duration             : 500 ms
 
http://www.imdb.com/title/tt1345836/

Source: DVD (perfect a/v/sync quality,sample included)
This torrent is not seedbox supported,please seed it to the MAX

Note:If you have something to offer as early releases,seedboxes,
links,accounts,etc please contact us on torentz 3xforum ro

The Dark Knight Rises (2012) DVDRip XviD-MAX Torrent Free Download
 
http://thepiratebay.se/user/extremezone/0/7